<?xml version="1.0" encoding="UTF-8" standalone="no"?><!DOCTYPE svg PUBLIC "-//W3C//DTD SVG 1.1//EN" "http://www.w3.org/Graphics/SVG/1.1/DTD/svg11.dtd"><svg width="100%" height="100%" viewBox="0 0 800 756" version="1.1" xmlns="http://www.w3.org/2000/svg" xmlns:xlink="http://www.w3.org/1999/xlink" xml:space="preserve" xmlns:serif="http://www.serif.com/" style="fill-rule:evenodd;clip-rule:evenodd;stroke-linecap:round;stroke-linejoin:round;stroke-miterlimit:1.5;"><rect id="Illustration" x="0" y="0" width="800" height="755.177" style="fill:none;"/><g><g id="Monitor"><path d="M761.923,65.474c0,-8.152 -3.238,-15.97 -9.002,-21.734c-5.765,-5.764 -13.582,-9.003 -21.734,-9.003c-118.367,0 -543.987,0 -662.354,0c-8.152,0 -15.97,3.239 -21.734,9.003c-5.764,5.764 -9.002,13.582 -9.002,21.734c0,87.403 0,336.674 0,424.077c0,8.152 3.238,15.97 9.002,21.734c5.764,5.764 13.582,9.003 21.734,9.003c118.367,0 543.987,0 662.354,0c8.152,0 15.969,-3.239 21.734,-9.003c5.764,-5.764 9.002,-13.582 9.002,-21.734c0,-87.403 0,-336.674 0,-424.077Z" style="fill:none;stroke:#00b27d;stroke-width:2px;"/><path d="M703.616,104.587c0,-8.152 -3.239,-15.97 -9.003,-21.734c-5.764,-5.764 -13.582,-9.002 -21.734,-9.002c-103.967,0 -441.771,0 -545.739,0c-8.151,0 -15.969,3.238 -21.733,9.002c-5.765,5.764 -9.003,13.582 -9.003,21.734c0,72.853 0,255.367 0,328.22c0,8.152 3.238,15.97 9.003,21.734c5.764,5.764 13.582,9.002 21.733,9.002c103.968,0 441.772,0 545.739,0c8.152,0 15.97,-3.238 21.734,-9.002c5.764,-5.764 9.003,-13.582 9.003,-21.734c0,-72.853 0,-255.367 0,-328.22Z" style="fill:none;stroke:#00b27d;stroke-width:2px;"/><circle cx="400" cy="492.259" r="14.952" style="fill:none;stroke:#00b27d;stroke-width:2px;"/><path d="M327.857,520.288c0,0 25.44,89.268 -15.364,130.072" style="fill:none;stroke:#00b27d;stroke-width:2px;"/><path d="M471.424,520.288c0,0 -9.217,32.344 -7.656,66.993c1.032,22.914 6.778,46.836 23.02,63.079" style="fill:none;stroke:#00b27d;stroke-width:2px;"/><path d="M346.753,651c0,0 -186.998,0 -237.116,0c-3.244,0 -6.356,1.289 -8.65,3.583c-2.294,2.294 -3.583,5.406 -3.583,8.65c0,8.535 0,19.878 0,28.412c0,6.756 5.477,12.233 12.233,12.233c47.856,0 219.759,0 219.759,0" style="fill:none;stroke:#00b27d;stroke-width:2px;"/><path d="M470.252,703.878c0,0 179.771,0 224.419,0c5.493,0 9.945,-4.452 9.945,-9.945c0,-9.439 0,-23.549 0,-32.988c0,-5.493 -4.452,-9.945 -9.945,-9.945c-46.637,0 -241.425,0 -241.425,0" style="fill:none;stroke:#00b27d;stroke-width:2px;"/><path d="M236.912,127.085c0,-1.326 -0.527,-2.598 -1.464,-3.535c-0.938,-0.938 -2.21,-1.465 -3.536,-1.465c-12.507,0 -45.037,0 -57.544,0c-1.326,0 -2.598,0.527 -3.536,1.465c-0.937,0.937 -1.464,2.209 -1.464,3.535c0,4.706 0,11.714 0,16.419c0,1.326 0.527,2.598 1.464,3.536c0.938,0.937 2.21,1.464 3.536,1.464c12.507,0 45.037,0 57.544,0c1.326,0 2.598,-0.527 3.536,-1.464c0.937,-0.938 1.464,-2.21 1.464,-3.536c0,-4.705 0,-11.713 0,-16.419Z" style="fill:none;stroke:#00b27d;stroke-width:2px;"/><path d="M236.912,195.931c0,-1.326 -0.527,-2.598 -1.464,-3.536c-0.938,-0.937 -2.21,-1.464 -3.536,-1.464c-12.507,0 -45.037,0 -57.544,0c-1.326,0 -2.598,0.527 -3.536,1.464c-0.937,0.938 -1.464,2.21 -1.464,3.536c0,4.705 0,11.713 0,16.419c0,1.326 0.527,2.598 1.464,3.535c0.938,0.938 2.21,1.465 3.536,1.465c12.507,0 45.037,0 57.544,0c1.326,0 2.598,-0.527 3.536,-1.465c0.937,-0.937 1.464,-2.209 1.464,-3.535c0,-4.706 0,-11.714 0,-16.419Z" style="fill:none;stroke:#00b27d;stroke-width:2px;"/><path d="M236.912,333.496c0,-1.326 -0.527,-2.597 -1.464,-3.535c-0.938,-0.938 -2.21,-1.465 -3.536,-1.465c-12.507,0 -45.037,0 -57.544,0c-1.326,0 -2.598,0.527 -3.536,1.465c-0.937,0.938 -1.464,2.209 -1.464,3.535c0,4.706 0,11.714 0,16.419c0,1.326 0.527,2.598 1.464,3.536c0.938,0.938 2.21,1.464 3.536,1.464c12.507,0 45.037,0 57.544,0c1.326,0 2.598,-0.526 3.536,-1.464c0.937,-0.938 1.464,-2.21 1.464,-3.536c0,-4.705 0,-11.713 0,-16.419Z" style="fill:none;stroke:#00b27d;stroke-width:2px;"/><path d="M236.912,394.718c0,-1.326 -0.527,-2.598 -1.464,-3.535c-0.938,-0.938 -2.21,-1.465 -3.536,-1.465c-12.507,0 -45.037,0 -57.544,0c-1.326,0 -2.598,0.527 -3.536,1.465c-0.937,0.937 -1.464,2.209 -1.464,3.535c0,4.705 0,11.714 0,16.419c0,1.326 0.527,2.598 1.464,3.535c0.938,0.938 2.21,1.465 3.536,1.465c12.507,0 45.037,0 57.544,0c1.326,0 2.598,-0.527 3.536,-1.465c0.937,-0.937 1.464,-2.209 1.464,-3.535c0,-4.705 0,-11.714 0,-16.419Z" style="fill:none;stroke:#00b27d;stroke-width:2px;"/><path d="M236.912,394.718c0,-1.326 -0.527,-2.598 -1.464,-3.535c-0.938,-0.938 -2.21,-1.465 -3.536,-1.465c-12.507,0 -45.037,0 -57.544,0c-1.326,0 -2.598,0.527 -3.536,1.465c-0.937,0.937 -1.464,2.209 -1.464,3.535c0,4.705 0,11.714 0,16.419c0,1.326 0.527,2.598 1.464,3.535c0.938,0.938 2.21,1.465 3.536,1.465c12.507,0 45.037,0 57.544,0c1.326,0 2.598,-0.527 3.536,-1.465c0.937,-0.937 1.464,-2.209 1.464,-3.535c0,-4.705 0,-11.714 0,-16.419Z" style="fill:none;stroke:#00b27d;stroke-width:2px;"/><path d="M595.009,394.718c0,-2.761 -2.239,-5 -5,-5c-12.317,0 -44.013,0 -56.33,0c-2.761,0 -5,2.239 -5,5c0,4.705 0,11.714 0,16.419c0,2.761 2.239,5 5,5c12.317,0 44.013,0 56.33,0c2.761,0 5,-2.239 5,-5c0,-4.705 0,-11.714 0,-16.419Z" style="fill:none;stroke:#00b27d;stroke-width:2px;"/><path d="M236.912,264.728c0,-1.326 -0.527,-2.598 -1.464,-3.535c-0.938,-0.938 -2.21,-1.465 -3.536,-1.465c-12.507,0 -45.037,0 -57.544,0c-1.326,0 -2.598,0.527 -3.536,1.465c-0.937,0.937 -1.464,2.209 -1.464,3.535c0,4.705 0,11.714 0,16.419c0,1.326 0.527,2.598 1.464,3.535c0.938,0.938 2.21,1.465 3.536,1.465c12.507,0 45.037,0 57.544,0c1.326,0 2.598,-0.527 3.536,-1.465c0.937,-0.937 1.464,-2.209 1.464,-3.535c0,-4.705 0,-11.714 0,-16.419Z" style="fill:none;stroke:#00b27d;stroke-width:2px;"/><path d="M236.912,264.728c0,-1.326 -0.527,-2.598 -1.464,-3.535c-0.938,-0.938 -2.21,-1.465 -3.536,-1.465c-12.507,0 -45.037,0 -57.544,0c-1.326,0 -2.598,0.527 -3.536,1.465c-0.937,0.937 -1.464,2.209 -1.464,3.535c0,4.705 0,11.714 0,16.419c0,1.326 0.527,2.598 1.464,3.535c0.938,0.938 2.21,1.465 3.536,1.465c12.507,0 45.037,0 57.544,0c1.326,0 2.598,-0.527 3.536,-1.465c0.937,-0.937 1.464,-2.209 1.464,-3.535c0,-4.705 0,-11.714 0,-16.419Z" style="fill:none;stroke:#00b27d;stroke-width:2px;"/><path d="M577.415,127.085c0,-1.326 -0.527,-2.598 -1.465,-3.535c-0.937,-0.938 -2.209,-1.465 -3.535,-1.465c-36.251,0 -258.386,0 -294.637,0c-1.326,0 -2.598,0.527 -3.536,1.465c-0.938,0.937 -1.464,2.209 -1.464,3.535c0,4.706 0,11.714 0,16.419c0,1.326 0.526,2.598 1.464,3.536c0.938,0.937 2.21,1.464 3.536,1.464c36.251,0 258.386,0 294.637,0c1.326,0 2.598,-0.527 3.535,-1.464c0.938,-0.938 1.465,-2.21 1.465,-3.536c0,-4.705 0,-11.713 0,-16.419Z" style="fill:none;stroke:#00b27d;stroke-width:2px;"/><path d="M498.075,195.931c0,-2.761 -2.238,-5 -5,-5c-29.954,0 -185.343,0 -215.297,0c-2.762,0 -5,2.239 -5,5c0,4.705 0,11.713 0,16.419c0,2.761 2.238,5 5,5c29.954,0 185.343,0 215.297,0c2.762,0 5,-2.239 5,-5c0,-4.706 0,-11.714 0,-16.419Z" style="fill:none;stroke:#00b27d;stroke-width:2px;"/><path d="M630.37,333.496c0,-2.761 -2.238,-5 -5,-5c-40.005,0 -307.587,0 -347.592,0c-2.762,0 -5,2.239 -5,5c0,4.706 0,11.714 0,16.419c0,2.762 2.238,5 5,5c40.005,0 307.587,0 347.592,0c2.762,0 5,-2.238 5,-5c0,-4.705 0,-11.713 0,-16.419Z" style="fill:none;stroke:#00b27d;stroke-width:2px;"/><path d="M498.431,394.718c0,-2.761 -2.239,-5 -5,-5c-29.985,0 -185.669,0 -215.653,0c-2.762,0 -5,2.239 -5,5c0,4.705 0,11.714 0,16.419c0,2.761 2.238,5 5,5c29.984,0 185.668,0 215.653,0c2.761,0 5,-2.239 5,-5c0,-4.705 0,-11.714 0,-16.419Z" style="fill:none;stroke:#00b27d;stroke-width:2px;"/><path d="M595.009,264.728c0,-1.326 -0.527,-2.598 -1.465,-3.535c-0.937,-0.938 -2.209,-1.465 -3.535,-1.465c-22.206,0 -111.777,0 -133.983,0c-1.326,0 -2.598,0.527 -3.535,1.465c-0.938,0.937 -1.465,2.209 -1.465,3.535c0,4.705 0,11.714 0,16.419c0,1.326 0.527,2.598 1.465,3.535c0.937,0.938 2.209,1.465 3.535,1.465c22.206,0 111.777,0 133.983,0c1.326,0 2.598,-0.527 3.535,-1.465c0.938,-0.937 1.465,-2.209 1.465,-3.535c0,-4.705 0,-11.714 0,-16.419Z" style="fill:none;stroke:#00b27d;stroke-width:2px;"/><path d="M419.936,264.728c0,-2.761 -2.238,-5 -5,-5c-22.544,0 -114.614,0 -137.158,0c-2.762,0 -5,2.239 -5,5c0,4.705 0,11.714 0,16.419c0,2.761 2.238,5 5,5c22.544,0 114.614,0 137.158,0c2.762,0 5,-2.239 5,-5c0,-4.705 0,-11.714 0,-16.419Z" style="fill:none;stroke:#00b27d;stroke-width:2px;"/></g><g id="Upper-Body" serif:id="Upper Body"><g id="Left-Shoulder" serif:id="Left Shoulder"><path d="M348.598,640.933l4.572,-2.42l1.891,-0.485l3.491,-0.856l8.555,-2.363l4.342,-1.97l5.033,-2.237l3.399,-1.042l2.822,-0.903l5.516,-1.679" style="fill:none;stroke:#00b27d;stroke-width:2px;"/><path d="M388.891,626.978l11.085,18.867" style="fill:none;stroke:#00b27d;stroke-width:2px;"/></g><g id="Right-Shoulder" serif:id="Right Shoulder"><path d="M451.219,640.933l-4.572,-2.42l-1.89,-0.485l-3.492,-0.856l-8.554,-2.363l-4.342,-1.97l-5.033,-2.237l-3.4,-1.042l-2.822,-0.903l-5.516,-1.679" style="fill:none;stroke:#00b27d;stroke-width:2px;"/><path id="_-" serif:id=" " d="M411.733,626.978l-11.085,18.867" style="fill:none;stroke:#00b27d;stroke-width:2px;"/></g><g id="Neck"><path d="M392.074,618.993l0.14,11.795" style="fill:none;stroke:#00b27d;stroke-width:2px;"/><path d="M408.821,617.993l0.15,13.596" style="fill:none;stroke:#00b27d;stroke-width:2px;"/></g><g id="Head"><ellipse cx="399.29" cy="570.102" rx="40.878" ry="48.89" style="fill:none;stroke:#00b27d;stroke-width:2px;"/><path d="M359.973,583.519c0,0 15.766,-16.758 19.997,-21.255c0.265,-0.282 0.636,-0.438 1.022,-0.43c0.386,0.007 0.751,0.177 1.004,0.469c1.581,1.816 4.639,5.329 6.047,6.946c0.431,0.495 1.153,0.614 1.72,0.283c3.262,-1.904 13.779,-8.044 17.433,-10.176c0.327,-0.191 0.719,-0.238 1.082,-0.129c0.362,0.109 0.664,0.363 0.832,0.703c2.135,4.319 8.976,18.153 11.954,24.174c0.242,0.489 0.752,0.788 1.297,0.759c0.545,-0.029 1.021,-0.379 1.21,-0.891c2.108,-5.703 6.689,-18.098 8.76,-23.7c0.187,-0.505 0.652,-0.853 1.188,-0.89c0.537,-0.037 1.045,0.245 1.299,0.719c1.99,3.721 5.35,10.001 5.35,10.001" style="fill:none;stroke:#00b27d;stroke-width:2px;"/></g><g id="Right-Arm" serif:id="Right Arm"><path d="M434.364,666.446l-1.923,-11.087" style="fill:none;stroke:#00b27d;stroke-width:2px;"/><path d="M455.088,666.443l-3.686,-25.25" style="fill:none;stroke:#00b27d;stroke-width:2px;"/></g><g id="Left-Arm" serif:id="Left Arm"><path d="M365.332,666.375l0.563,-3.251l1.494,-8.615" style="fill:none;stroke:#00b27d;stroke-width:2px;"/><path d="M344.984,666.505l3.614,-25.572" style="fill:none;stroke:#00b27d;stroke-width:2px;"/></g><g id="Sides"><path d="M367.226,655.509l0.954,10.934" style="fill:none;stroke:#00b27d;stroke-width:2px;"/><path d="M432.493,655.509l-0.565,8.084l-0.389,2.85" style="fill:none;stroke:#00b27d;stroke-width:2px;"/></g></g><g id="Laptop"><path d="M470.251,677.186c0,-2.849 -1.132,-5.582 -3.147,-7.596c-2.014,-2.015 -4.747,-3.147 -7.596,-3.147c-26.708,0 -93.978,0 -93.978,0c0,0 -14.532,0 -25.086,0c-2.849,0 -5.581,1.132 -7.596,3.147c-2.014,2.014 -3.146,4.747 -3.146,7.596c0,17.066 0,50.182 0,67.248c0,2.849 1.132,5.582 3.146,7.596c2.015,2.015 4.747,3.147 7.596,3.147c26.155,0 92.909,0 119.064,0c2.849,0 5.581,-1.132 7.596,-3.147c2.015,-2.014 3.147,-4.747 3.147,-7.596c0,-17.066 0,-50.182 0,-67.248Z" style="fill:none;stroke:#00b27d;stroke-width:2px;"/><circle cx="399.976" cy="710.81" r="9.557" style="fill:none;stroke:#00b27d;stroke-width:2px;"/></g></g></svg>