<?xml version="1.0" encoding="UTF-8" standalone="no"?><!DOCTYPE svg PUBLIC "-//W3C//DTD SVG 1.1//EN" "http://www.w3.org/Graphics/SVG/1.1/DTD/svg11.dtd"><svg width="100%" height="100%" viewBox="0 0 906 745" version="1.1" xmlns="http://www.w3.org/2000/svg" xmlns:xlink="http://www.w3.org/1999/xlink" xml:space="preserve" xmlns:serif="http://www.serif.com/" style="fill-rule:evenodd;clip-rule:evenodd;stroke-linejoin:round;stroke-miterlimit:1.41421;"><path d="M299.4,710.5c-32.5,-32.9 -31.8,-138.9 -12.4,-245.4c18.583,-100.964 41.781,-153.733 44.034,-157.236c-12.256,3.091 -23.612,6.066 -26.071,6.982l-213.597,46.9c18.2,-43.6 395.734,-321.628 451.934,-327.328l-148.5,128.1c15.7,-10 123.7,-36.5 173.1,-47.1c105.572,-22.75 188.243,-27.081 243.442,-20.74l0.421,-0.032l-0.224,0.054l0.161,0.018l-0.344,0.027c-72.817,17.685 -292.777,120.312 -283.993,126.301c50.8,-12.5 185.7,6.6 183.6,7c-1.991,0.553 -54.554,11.165 -107.459,21.828l-46.118,70.61l-30.714,47.209c0,0 -42.27,65.158 -80.433,123.61l-1.749,2.692l117.399,-22.592c109.1,-18 186.212,-6.088 253.512,16.912l-0.005,0c1.096,0.2 2.192,0.5 3.287,1.098c-84,-2.8 -400.883,137.987 -519.183,221.187l-0.1,-0.1Z" style="fill:#666;fill-rule:nonzero;"/><path d="M422.15,285.968c1.35,-0.282 2.7,-0.568 4.05,-0.868c1.2,-0.3 2.4,-0.5 3.7,-0.8l0.8,0c-1.1,2.2 -2.3,4.4 -3.4,6.5c-1.1,2.1 -2.1,4.2 -3.2,6.2c-1,2.1 -2.1,4.1 -3.1,6.2c-0.2,0.3 -0.3,0.6 -0.5,0.9c-1,2.1 -2.1,4.2 -3.1,6.2c-2,4.1 -4,8.2 -5.9,12.3c-14.5,30.5 -27.4,61.1 -38.9,91.8c1.4,-3.9 2.9,-7.8 4.4,-11.7c-0.1,0.2 -0.2,0.5 -0.3,0.7c-0.8,1.9 -1.5,3.9 -2.2,5.8c-0.5,1.3 -1,2.6 -1.5,3.9c-0.125,0.325 -0.25,0.656 -0.375,0.991l-0.75,2.018c-0.125,0.335 -0.25,0.666 -0.375,0.991c-0.2,0.6 -0.4,1.1 -0.6,1.7c-0.7,1.8 -1.3,3.5 -2,5.3c-0.2,0.6 -0.4,1.2 -0.7,1.9c-0.7,2 -1.5,4.1 -2.2,6.1c-0.7,2 -1.4,3.9 -2.1,5.9c-1,2.9 -2,5.8 -3,8.7c-0.8,2.3 -1.6,4.7 -2.4,7c-2.5,7.6 -5,15.2 -7.4,22.8c-0.6,2 -1.2,4 -1.9,6c-0.6,1.9 -1.2,3.9 -1.8,5.8c-0.125,0.425 -0.25,0.844 -0.375,1.259l-0.75,2.482c-0.125,0.415 -0.25,0.834 -0.375,1.259c-1,3.2 -1.9,6.5 -2.9,9.7c-1,3.2 -1.9,6.5 -2.8,9.7c-2.5,8.7 -4.8,17.3 -7,26c-0.225,0.825 -0.436,1.636 -0.643,2.443l-0.414,1.614c-0.207,0.807 -0.418,1.618 -0.643,2.443c-0.6,2.2 -1.1,4.3 -1.6,6.5c-0.7,2.8 -1.4,5.6 -2,8.4c-3.1,12.9 -6.1,25.9 -8.8,38.9c-0.6,2.9 -1.2,5.8 -1.8,8.7c-0.1,0.7 -0.3,1.3 -0.4,2c-0.4,1.9 -0.8,3.8 -1.2,5.7c-0.2,0.7 -0.3,1.5 -0.4,2.2c-0.1,0.4 -0.2,0.8 -0.2,1.2c-0.6,2.9 -1.1,5.8 -1.7,8.7c-0.5,2.6 -1,5.2 -1.5,7.9c-0.5,2.6 -1,5.2 -1.5,7.9c-1.4,7.9 -2.8,15.7 -4.1,23.6c-0.9,5.6 -1.8,11.1 -2.7,16.7c-0.1,0.9 -0.3,1.9 -0.5,2.8c-0.2,1.3 -0.4,2.6 -0.6,3.8c-0.1,0.4 -0.1,0.8 -0.2,1.2c-0.3,1.8 -0.5,3.7 -0.8,5.5c-0.3,2.2 -0.7,4.5 -1,6.7c-0.3,2.2 -0.6,4.5 -1,6.7l0,0.3l-0.1,-0.1c-32.5,-32.9 -31.8,-138.9 -12.4,-245.4c18.7,-101.6 42.073,-154.397 44.073,-157.297c0.1,0 54.927,-14.103 78.827,-19.203c0.9,-0.2 1.8,-0.4 2.7,-0.6c0.9,-0.2 1.9,-0.4 2.8,-0.6c1.35,-0.3 2.7,-0.586 4.05,-0.868l2.7,-0.564Zm393.251,202.347c-173.9,-7.5 -322.912,24.488 -418.712,78.088c11.4,-17.2 29.245,-43.897 47.745,-72.397l117.455,-22.603c109.1,-18 186.212,-6.088 253.512,16.912Zm-3.701,-393.597c-252.571,19.129 -495.467,109.704 -720.334,267.028c18.2,-43.6 395.734,-321.628 451.934,-327.328l-148.5,128.1c15.7,-10 123.7,-36.5 173.1,-47.1c105.8,-22.8 188.6,-27.1 243.8,-20.7Z" style="fill:#444;fill-rule:nonzero;"/></svg>