<?xml version="1.0" standalone="no"?>
<!DOCTYPE svg PUBLIC "-//W3C//DTD SVG 20010904//EN"
 "http://www.w3.org/TR/2001/REC-SVG-20010904/DTD/svg10.dtd">
<svg version="1.0" xmlns="http://www.w3.org/2000/svg"
 width="3053.000000pt" height="3053.000000pt" viewBox="0 0 3053.000000 3053.000000"
 preserveAspectRatio="xMidYMid meet">
<metadata>
Created by potrace 1.11, written by Peter Selinger 2001-2013
</metadata>
<g transform="translate(0.000000,3053.000000) scale(0.100000,-0.100000)"
fill="#000000" stroke="none">
<path d="M18766 29353 c-1 -1 -20 -5 -42 -9 -53 -8 -272 -75 -359 -109 -168
-65 -275 -110 -398 -166 -137 -63 -588 -287 -667 -332 -25 -15 -63 -35 -85
-46 -37 -19 -76 -40 -250 -136 -101 -56 -131 -73 -257 -145 -62 -35 -122 -70
-133 -76 -11 -6 -55 -32 -98 -57 -43 -26 -81 -47 -84 -47 -2 0 -24 -13 -48
-30 -24 -16 -46 -30 -50 -30 -3 0 -22 -11 -43 -24 -20 -13 -56 -35 -78 -48
-23 -13 -135 -79 -248 -148 -113 -69 -214 -130 -224 -135 -9 -6 -28 -17 -42
-26 -14 -9 -97 -61 -185 -114 -88 -54 -189 -117 -225 -140 -36 -23 -191 -121
-345 -219 -154 -97 -408 -261 -565 -363 -157 -102 -298 -194 -315 -204 -38
-23 37 26 -650 -432 -324 -216 -633 -422 -685 -458 -52 -36 -232 -159 -399
-273 -415 -284 -415 -284 -426 -294 -5 -4 -57 -40 -115 -80 -58 -39 -143 -99
-190 -131 -47 -33 -123 -86 -170 -118 -47 -32 -89 -62 -95 -66 -5 -5 -109 -78
-230 -162 -121 -85 -224 -157 -230 -162 -5 -5 -55 -40 -110 -78 -55 -38 -141
-99 -191 -135 -50 -36 -101 -72 -114 -80 -12 -8 -34 -24 -48 -35 -14 -10 -49
-35 -77 -55 -29 -19 -79 -54 -111 -78 -65 -48 -281 -203 -564 -404 -102 -72
-198 -142 -215 -155 -42 -33 -151 -112 -319 -233 -34 -25 -98 -71 -142 -103
-43 -32 -104 -75 -134 -97 -30 -22 -96 -70 -147 -107 -51 -37 -165 -122 -255
-188 -90 -66 -284 -210 -433 -320 -148 -110 -331 -245 -405 -300 -74 -55 -142
-105 -150 -112 -8 -7 -136 -103 -285 -214 -232 -175 -337 -254 -380 -287 -5
-4 -122 -93 -260 -197 -137 -104 -291 -221 -341 -260 -50 -38 -106 -81 -124
-95 -55 -41 -145 -111 -589 -456 -233 -181 -444 -344 -470 -363 -25 -19 -48
-37 -51 -40 -3 -4 -57 -47 -120 -96 -63 -49 -117 -92 -120 -95 -3 -3 -45 -37
-95 -75 -49 -38 -99 -77 -110 -87 -11 -9 -81 -65 -155 -123 -74 -58 -144 -114
-155 -123 -11 -9 -52 -42 -90 -72 -39 -30 -72 -57 -75 -60 -3 -3 -27 -23 -55
-45 -27 -21 -52 -42 -55 -45 -3 -3 -25 -21 -50 -40 -25 -19 -54 -42 -65 -52
-11 -9 -121 -98 -245 -199 -124 -100 -227 -185 -230 -188 -3 -4 -39 -33 -80
-66 -41 -32 -77 -62 -80 -65 -3 -3 -43 -37 -90 -75 -89 -73 -110 -91 -140
-115 -9 -8 -37 -31 -61 -51 -252 -210 -978 -832 -1043 -894 -12 -11 -57 -51
-101 -90 -44 -38 -98 -86 -120 -107 -22 -20 -49 -45 -61 -55 -25 -21 -190
-172 -283 -258 -368 -341 -709 -688 -970 -990 -98 -113 -261 -356 -261 -390 0
-10 40 -5 142 20 57 13 117 27 133 30 46 8 75 14 93 19 9 3 28 7 42 10 66 13
98 20 280 61 107 24 206 46 220 49 14 2 66 14 115 24 50 11 176 39 280 62 105
23 219 48 255 57 36 8 76 17 90 19 14 3 126 27 250 55 124 28 236 52 250 55
14 2 43 8 65 14 22 5 94 21 160 35 230 49 530 116 565 125 19 5 51 12 70 15
19 3 85 17 145 31 61 14 120 28 133 30 13 3 76 16 140 30 64 14 124 27 132 29
8 2 78 17 155 34 77 18 155 34 175 37 19 3 43 10 53 15 9 5 17 8 17 5 0 -3 20
0 105 20 11 3 31 7 45 10 14 3 45 10 70 15 25 6 56 13 70 15 14 3 43 10 65 15
22 5 51 12 65 15 14 2 52 11 85 19 33 8 71 16 85 19 14 2 99 21 190 41 91 20
176 39 190 41 14 3 54 12 90 20 36 9 75 18 88 20 13 3 74 16 135 29 140 32
344 75 377 81 14 3 43 10 65 16 22 5 49 12 60 14 11 2 29 6 40 8 11 3 103 23
205 45 102 22 237 52 300 66 63 14 124 27 135 29 11 3 63 14 115 26 52 12 106
24 120 26 14 3 33 7 42 10 10 3 30 7 45 10 16 3 78 16 138 30 61 14 122 27
137 29 15 2 44 9 65 14 31 9 104 25 343 76 8 2 35 8 60 14 25 6 97 22 160 36
63 14 124 27 135 30 11 2 137 30 280 61 639 138 839 185 970 229 120 40 576
167 642 179 13 3 26 7 30 9 5 3 24 8 43 11 19 3 123 28 230 55 107 27 196 48
198 47 1 -2 -13 -37 -32 -79 -19 -41 -49 -110 -66 -154 -18 -43 -38 -91 -45
-108 -7 -16 -25 -61 -40 -100 -15 -38 -35 -90 -45 -115 -21 -53 -44 -113 -46
-120 0 -3 -4 -12 -7 -20 -14 -34 -99 -266 -102 -280 -1 -9 -19 -58 -38 -110
-78 -214 -347 -1054 -402 -1260 -3 -8 -44 -154 -93 -325 -49 -170 -103 -362
-120 -425 -17 -63 -47 -176 -67 -250 -20 -74 -39 -146 -41 -160 -3 -14 -21
-85 -40 -159 -20 -73 -37 -140 -39 -150 -2 -9 -28 -117 -59 -241 -30 -124 -57
-240 -61 -257 -3 -18 -10 -45 -16 -60 -6 -15 -10 -29 -9 -31 1 -1 -1 -15 -4
-30 -4 -15 -8 -36 -10 -48 -2 -11 -9 -38 -15 -60 -6 -21 -22 -93 -37 -159 -14
-66 -37 -169 -51 -230 -27 -123 -100 -467 -139 -650 -21 -101 -36 -176 -60
-300 -2 -11 -24 -123 -49 -250 -25 -126 -48 -246 -51 -265 -3 -19 -9 -53 -14
-75 -5 -22 -11 -56 -15 -75 -3 -19 -10 -57 -15 -85 -5 -27 -12 -63 -15 -80 -3
-16 -7 -41 -9 -55 -12 -68 -46 -259 -50 -285 -3 -16 -14 -86 -26 -155 -11 -69
-23 -141 -26 -160 -7 -48 -13 -80 -18 -110 -3 -14 -8 -43 -11 -65 -4 -22 -8
-51 -10 -65 -22 -146 -45 -304 -50 -345 -4 -27 -8 -57 -10 -65 -2 -8 -7 -37
-11 -65 -3 -27 -8 -57 -9 -65 -2 -9 -6 -43 -10 -75 -4 -33 -9 -67 -10 -75 -2
-9 -6 -43 -10 -75 -4 -33 -9 -67 -10 -76 -2 -9 -6 -40 -10 -70 -3 -30 -10 -81
-15 -114 -5 -33 -12 -87 -15 -120 -3 -33 -8 -71 -10 -85 -6 -33 -13 -90 -20
-165 -3 -33 -7 -69 -9 -80 -2 -11 -7 -51 -10 -90 -4 -38 -9 -81 -11 -95 -2
-14 -7 -54 -10 -90 -4 -36 -8 -76 -9 -90 -2 -14 -6 -56 -10 -95 -4 -38 -9 -86
-11 -105 -2 -19 -7 -71 -10 -115 -3 -43 -8 -93 -10 -110 -2 -16 -7 -66 -10
-110 -4 -44 -8 -98 -10 -120 -5 -48 -12 -142 -20 -250 -3 -44 -8 -102 -10
-130 -3 -27 -7 -97 -10 -155 -4 -58 -8 -130 -10 -160 -2 -30 -7 -113 -10 -185
-4 -71 -8 -161 -10 -200 -27 -501 -27 -1622 0 -2045 3 -41 7 -113 10 -160 6
-107 14 -211 20 -275 7 -70 15 -162 20 -215 5 -59 14 -144 22 -200 3 -25 7
-56 8 -70 4 -45 19 -157 30 -230 3 -14 11 -72 20 -130 19 -127 24 -157 30
-190 12 -58 15 -77 20 -105 26 -150 101 -469 146 -625 17 -58 32 -109 33 -115
14 -59 125 -371 162 -453 13 -29 24 -55 24 -58 0 -11 139 -285 176 -346 94
-158 192 -293 290 -397 49 -52 53 -55 71 -40 10 9 41 32 68 51 100 69 297 203
314 213 9 6 88 58 176 116 88 59 207 136 265 172 58 37 110 70 115 74 36 30
752 468 1120 685 131 78 584 339 743 429 62 35 130 74 150 85 20 12 181 101
357 198 176 97 327 181 335 186 8 6 22 13 30 17 8 3 49 25 90 48 72 41 145 79
335 180 50 26 146 78 215 115 242 130 396 211 700 368 91 47 228 119 305 159
204 106 1532 770 1790 895 210 102 394 190 680 328 128 62 234 111 370 175 39
18 117 55 175 82 58 28 134 64 170 81 36 17 106 49 155 72 50 23 117 55 150
70 33 15 104 49 158 74 55 25 100 46 102 46 2 0 41 18 87 39 103 49 345 159
503 231 28 12 77 35 110 50 64 29 141 64 190 85 17 8 57 26 90 40 33 15 159
71 280 125 121 54 246 110 277 124 31 14 59 26 62 26 2 0 40 16 83 36 222 103
1403 608 1873 801 47 19 121 50 165 68 247 102 468 192 780 316 193 77 359
144 370 149 11 6 52 21 90 35 39 14 79 30 90 35 11 5 85 35 165 65 80 31 154
60 165 65 11 5 135 52 275 105 140 53 318 121 395 150 77 30 235 88 350 130
116 42 217 79 225 82 8 3 20 7 25 8 6 2 34 13 64 25 30 11 84 32 120 45 381
135 717 253 956 334 77 27 167 57 200 68 203 70 801 260 1135 362 276 83 935
270 1015 286 11 3 100 25 197 49 97 25 187 47 200 50 13 2 70 16 128 30 58 14
116 27 130 30 14 3 36 8 50 11 14 3 36 7 50 10 14 3 99 20 190 39 91 19 185
37 210 41 25 4 63 10 85 15 42 9 264 44 350 55 28 4 60 8 73 10 13 2 53 7 90
10 37 4 77 8 88 10 73 11 296 23 454 25 118 0 129 8 45 31 -61 17 -59 17 -271
25 -109 4 -224 8 -254 9 -30 2 -90 3 -132 4 -44 1 -78 5 -78 11 0 6 37 8 98 6
53 -3 180 -7 282 -11 102 -3 223 -8 270 -10 l85 -5 -46 19 c-120 47 -1069 345
-1168 366 -9 2 -90 24 -181 50 -91 25 -210 57 -265 71 -55 13 -116 29 -135 34
-43 13 -276 70 -308 76 -12 2 -62 14 -110 25 -48 12 -94 22 -102 24 -8 2 -80
17 -160 35 -80 17 -163 35 -185 40 -43 10 -328 66 -385 75 -19 3 -57 10 -85
15 -27 5 -61 11 -75 14 -63 10 -117 19 -135 22 -40 8 -131 23 -165 28 -88 13
-119 18 -170 26 -30 5 -73 12 -95 15 -22 3 -53 7 -70 10 -41 6 -90 13 -150 20
-27 3 -65 8 -83 11 -17 3 -49 7 -70 9 -20 3 -55 7 -77 10 -22 2 -65 7 -95 10
-30 3 -71 8 -90 10 -55 7 -175 20 -290 30 -36 3 -83 8 -105 10 -22 2 -71 7
-110 10 -38 3 -95 8 -125 10 -111 9 -197 15 -270 19 -41 3 -125 8 -187 11
-263 16 -694 28 -1038 28 -266 1 -836 -10 -980 -18 -33 -2 -116 -6 -185 -10
-69 -3 -154 -8 -190 -10 -36 -2 -108 -7 -160 -10 -52 -3 -117 -8 -145 -10 -27
-3 -86 -8 -130 -11 -44 -3 -98 -7 -120 -8 -22 -2 -76 -7 -120 -10 -44 -4 -96
-9 -115 -11 -19 -2 -62 -7 -95 -10 -33 -3 -78 -7 -100 -10 -22 -2 -69 -6 -105
-10 -77 -7 -129 -13 -230 -25 -41 -6 -97 -12 -125 -15 -27 -3 -66 -7 -85 -10
-19 -2 -53 -7 -75 -10 -194 -25 -284 -36 -305 -40 -14 -2 -50 -7 -80 -10 -30
-4 -63 -9 -72 -11 -17 -3 -206 -31 -263 -38 -27 -4 -49 -8 -140 -22 -16 -3
-43 -7 -60 -10 -16 -2 -41 -6 -55 -9 -14 -3 -41 -7 -60 -10 -19 -3 -46 -8 -60
-10 -38 -8 -70 -14 -130 -25 -30 -6 -66 -12 -80 -15 -14 -3 -47 -9 -75 -15
-27 -5 -60 -11 -71 -14 -12 -2 -37 -7 -55 -10 -49 -8 -78 -14 -224 -43 -71
-14 -141 -27 -155 -29 -14 -3 -81 -16 -150 -29 -69 -13 -141 -27 -160 -30 -19
-3 -66 -12 -105 -20 -61 -12 -105 -20 -225 -41 -52 -10 -237 -45 -285 -55 -27
-6 -61 -13 -75 -15 -14 -2 -86 -16 -160 -30 -74 -14 -146 -28 -160 -30 -14 -3
-81 -16 -150 -29 -69 -13 -138 -26 -155 -29 -16 -3 -41 -8 -55 -11 -14 -3 -41
-8 -60 -11 -19 -3 -42 -7 -50 -9 -13 -4 -298 -59 -370 -71 -14 -2 -48 -9 -76
-15 -28 -5 -61 -12 -75 -14 -165 -31 -457 -86 -469 -90 -8 -2 -31 -7 -50 -10
-35 -6 -191 -35 -430 -81 -69 -13 -161 -30 -205 -38 -44 -8 -93 -18 -110 -21
-16 -3 -102 -19 -190 -36 -88 -16 -180 -34 -205 -39 -25 -5 -57 -12 -72 -14
-15 -3 -33 -8 -39 -12 -15 -9 -16 -11 86 146 45 69 108 166 140 215 32 50 104
160 160 245 55 85 124 191 153 235 28 44 103 159 166 255 63 96 148 227 189
290 41 63 119 183 173 265 137 212 369 567 422 650 74 114 317 488 431 662 58
90 156 239 216 333 61 94 169 261 242 373 127 195 197 303 355 547 41 63 122
187 179 275 165 252 438 675 507 782 34 54 67 105 72 113 32 46 160 243 160
246 0 2 17 29 39 61 21 32 68 103 103 158 36 55 85 132 110 170 25 39 71 111
103 160 32 50 86 133 120 185 34 52 82 127 107 165 78 122 289 447 333 515 41
63 153 236 286 442 96 149 193 299 264 408 34 52 81 126 105 164 25 38 81 125
126 195 84 128 159 245 293 451 40 63 90 140 110 170 20 30 38 59 41 65 3 5
29 45 58 87 28 42 52 79 52 81 0 3 71 113 120 187 6 8 33 51 62 95 28 44 69
106 90 138 21 32 38 61 38 63 0 3 5 10 11 17 11 13 35 50 217 332 l122 191
137 28 c141 28 159 32 203 40 14 2 70 14 125 25 55 12 114 24 130 26 17 3 44
8 60 12 17 3 37 7 45 8 8 2 62 12 120 24 58 12 115 23 128 26 40 7 380 76 401
80 50 11 126 27 151 30 8 2 96 19 195 40 99 20 191 39 205 41 14 3 104 21 200
40 96 20 186 38 200 40 14 3 99 20 190 39 91 18 235 48 320 65 85 18 164 34
175 36 11 2 34 7 50 9 17 3 84 17 150 31 66 14 131 27 145 30 14 2 34 6 45 8
29 6 318 67 330 70 6 2 33 7 60 11 28 5 52 10 55 10 3 1 16 5 30 8 14 4 37 9
53 12 15 3 37 7 50 10 12 3 31 7 42 9 214 46 262 56 270 56 24 1 -25 19 -65
24 -83 11 -112 15 -129 20 -9 3 -41 8 -71 11 -30 3 -62 8 -70 10 -8 2 -37 6
-65 10 -27 3 -63 7 -80 9 -137 18 -171 23 -215 31 -14 2 -52 7 -85 10 -33 3
-67 8 -75 10 -8 2 -45 6 -82 10 -37 3 -77 8 -90 10 -29 5 -107 14 -173 20 -27
3 -61 7 -75 10 -14 2 -56 7 -95 11 -38 3 -78 8 -87 9 -9 2 -48 7 -85 10 -37 4
-78 8 -91 10 -12 2 -57 7 -100 10 -42 4 -85 9 -95 11 -10 2 -48 6 -85 9 -37 3
-83 8 -102 10 -19 2 -62 7 -95 10 -33 3 -78 8 -100 10 -51 5 -134 13 -210 20
-33 3 -80 7 -105 10 -25 2 -76 7 -115 10 -38 3 -86 8 -105 10 -19 2 -71 7
-115 10 -44 3 -102 8 -130 10 -73 7 -180 15 -260 20 -38 2 -92 6 -120 9 -27 3
-90 8 -140 11 -49 3 -117 8 -150 10 -33 3 -100 7 -150 10 -49 2 -128 7 -175
10 -157 10 -244 15 -380 21 -74 3 -169 7 -210 9 -530 25 -1395 25 -1855 0
-113 -6 -270 -16 -305 -20 -19 -2 -71 -7 -115 -10 -44 -4 -91 -8 -105 -10 -14
-2 -50 -6 -80 -10 -100 -11 -134 -16 -283 -41 -82 -13 -188 -33 -235 -44 -51
-11 -91 -15 -96 -10 -10 10 11 47 46 80 65 61 391 280 417 280 5 0 11 3 13 8
4 10 251 150 508 289 427 230 1441 741 1915 963 83 39 242 115 425 203 58 28
107 51 110 52 3 0 49 22 102 48 54 26 100 47 102 47 2 0 74 34 161 75 86 41
158 75 160 75 2 0 41 18 87 39 217 102 625 288 937 427 79 36 164 74 190 85
25 12 71 32 101 46 30 14 69 31 85 38 17 7 57 26 90 40 33 15 101 45 150 67
50 22 108 48 130 58 22 10 146 64 275 120 129 56 253 110 275 120 199 88 934
400 1290 548 510 212 907 372 923 372 6 0 12 5 12 10 0 6 6 10 13 10 6 0 64
21 127 46 487 193 1376 531 1540 584 14 5 77 27 140 49 183 66 631 215 805
270 260 81 647 191 683 193 6 1 12 5 12 10 0 5 6 6 13 2 6 -4 8 -3 4 1 -9 10
-12 11 -108 19 -41 4 -92 9 -114 11 -22 2 -66 6 -97 9 -31 3 -85 7 -120 11
-35 3 -92 8 -128 10 -36 2 -92 7 -125 10 -33 2 -105 7 -160 10 -55 3 -127 8
-160 10 -70 5 -329 15 -535 21 -167 4 -1066 4 -1215 -1 -281 -9 -488 -17 -555
-20 -41 -2 -131 -7 -200 -10 -69 -3 -154 -8 -190 -10 -36 -2 -107 -7 -157 -10
-295 -20 -462 -32 -553 -40 -25 -3 -79 -7 -120 -10 -41 -3 -97 -8 -125 -10
-27 -3 -77 -7 -110 -10 -33 -3 -80 -8 -105 -10 -25 -3 -70 -7 -100 -10 -59 -6
-115 -11 -195 -20 -27 -2 -75 -7 -105 -10 -77 -8 -139 -14 -180 -20 -19 -2
-62 -7 -95 -10 -33 -3 -94 -10 -135 -15 -41 -5 -97 -12 -125 -15 -27 -3 -66
-8 -85 -10 -45 -6 -115 -15 -160 -20 -31 -4 -198 -25 -315 -41 -22 -3 -51 -7
-65 -9 -14 -2 -63 -9 -110 -15 -80 -11 -122 -16 -180 -25 -14 -2 -47 -7 -75
-11 -27 -3 -57 -8 -65 -9 -16 -3 -151 -23 -210 -31 -19 -2 -60 -9 -90 -14 -30
-5 -73 -12 -95 -15 -49 -7 -162 -24 -192 -30 -12 -2 -57 -9 -100 -15 -43 -7
-87 -14 -98 -16 -11 -2 -78 -13 -150 -25 -71 -12 -139 -23 -150 -25 -11 -3
-36 -7 -55 -10 -19 -2 -57 -9 -85 -14 -27 -5 -65 -12 -82 -15 -76 -12 -99 -16
-113 -20 -8 -2 -31 -6 -50 -9 -19 -3 -96 -17 -170 -31 -145 -26 -152 -28 -280
-51 -47 -8 -107 -20 -135 -25 -27 -6 -61 -13 -75 -15 -14 -2 -47 -9 -75 -14
-27 -6 -59 -12 -71 -14 -11 -2 -81 -16 -155 -31 -74 -15 -143 -29 -154 -31
-21 -4 -306 -62 -340 -70 -11 -2 -56 -11 -100 -20 -44 -8 -105 -22 -135 -29
-30 -8 -75 -17 -100 -20 -24 -4 -48 -9 -52 -11 -6 -4 -84 -21 -133 -29 -11 -1
-51 -11 -90 -20 -38 -9 -80 -19 -91 -21 -12 -2 -81 -18 -154 -34 -73 -16 -142
-32 -154 -34 -16 -4 -741 -171 -781 -180 -46 -12 -72 -18 -155 -36 -52 -12
-178 -42 -280 -67 -102 -25 -193 -47 -204 -49 -10 -2 -123 -29 -250 -60 -127
-31 -235 -57 -241 -58 -5 -1 -19 -5 -30 -9 -11 -3 -31 -8 -45 -11 -14 -2 -117
-28 -230 -56 -113 -28 -213 -53 -223 -55 -38 -8 -424 -106 -452 -115 -16 -5
-41 -11 -55 -14 -14 -2 -52 -12 -85 -21 -33 -9 -67 -18 -75 -20 -36 -8 -307
-78 -430 -110 -289 -77 -325 -87 -340 -90 -14 -3 -198 -54 -625 -172 -215 -59
-499 -140 -605 -173 -36 -11 -175 -53 -310 -95 -357 -109 -783 -255 -904 -310
-17 -7 -62 -28 -101 -46 -108 -50 -114 -52 -85 -28 47 40 145 124 185 160 22
20 51 44 64 55 13 10 31 26 40 34 14 14 126 111 191 167 59 50 280 240 335
288 52 45 241 208 440 379 32 28 95 83 140 121 82 72 266 230 319 275 17 14
51 43 76 66 25 22 95 82 155 134 61 52 112 97 115 100 3 3 32 28 65 55 33 28
69 59 81 70 12 11 40 36 64 55 24 19 50 42 59 51 9 8 147 127 306 264 160 137
292 252 295 255 3 3 34 30 70 60 36 30 67 57 70 60 5 5 115 100 164 141 16 13
41 35 56 49 15 14 38 34 51 45 119 100 346 297 383 330 6 6 90 78 186 160 96
82 177 152 180 155 3 3 34 30 70 60 36 30 70 60 76 65 11 10 117 103 158 138
12 10 48 42 80 70 33 29 71 61 85 72 14 10 28 22 31 26 3 3 39 35 80 70 41 35
89 76 105 90 17 15 69 60 116 100 101 87 440 379 693 599 99 85 211 182 250
214 39 33 73 62 76 66 3 3 51 45 108 93 56 49 102 90 102 93 0 4 -59 2 -64 -3z
m-15476 -11477 c0 -3 -4 -8 -10 -11 -5 -3 -10 -1 -10 4 0 6 5 11 10 11 6 0 10
-2 10 -4z m26135 -7410 c88 -3 188 -5 223 -5 34 -1 62 -5 62 -10 0 -6 -46 -8
-112 -6 -691 23 -2146 24 -2778 1 -63 -3 -209 -7 -325 -11 -115 -3 -218 -8
-227 -11 -10 -3 -18 -1 -18 5 0 7 34 11 93 12 50 1 115 3 142 4 123 6 444 15
710 21 160 3 291 7 293 9 5 4 1760 -4 1937 -9z m-3193 -37 c-9 -10 -202 -16
-202 -7 0 6 72 11 192 13 10 1 14 -3 10 -6z m-218 -10 c3 -3 -38 -6 -90 -8
-52 -1 -104 -4 -115 -6 -10 -2 -19 0 -19 4 0 5 41 9 92 10 51 1 94 3 96 5 4 5
30 1 36 -5z m-234 -12 c-3 -3 -72 -7 -155 -10 -82 -2 -118 -1 -80 2 96 8 240
13 235 8z m-326 -16 c3 -4 -30 -9 -73 -10 -43 -1 -88 -4 -100 -6 -12 -2 -19 0
-17 4 3 4 40 9 83 10 43 1 79 4 82 7 7 7 19 5 25 -5z m-350 -19 c3 -5 -18 -9
-47 -9 l-52 -1 45 8 c25 4 46 8 47 8 1 1 4 -2 7 -6z m146 4 c-7 -6 -98 -11
-105 -5 -3 3 21 7 52 8 32 1 55 0 53 -3z m-255 -16 c-2 -4 -35 -7 -72 -7 l-68
0 60 6 c84 8 85 8 80 1z m-155 -10 c-8 -5 -37 -9 -65 -8 l-50 1 55 7 c30 4 60
7 65 8 6 1 3 -3 -5 -8z m-126 -8 c2 -4 -7 -8 -22 -9 -24 -2 -24 -1 -7 7 11 5
21 9 22 9 1 1 4 -3 7 -7z m-134 -12 c0 -5 -5 -10 -11 -10 -5 0 -7 5 -4 10 3 6
8 10 11 10 2 0 4 -4 4 -10z m68 3 c-10 -2 -28 -2 -40 0 -13 2 -5 4 17 4 22 1
32 -1 23 -4z m-168 -8 c0 -7 -30 -13 -34 -7 -3 4 4 9 15 9 10 1 19 0 19 -2z
m58 -2 c-10 -2 -26 -2 -35 0 -10 3 -2 5 17 5 19 0 27 -2 18 -5z m-203 -13 c-3
-5 -25 -9 -48 -8 l-42 1 45 7 c25 4 46 8 48 8 2 1 0 -2 -3 -8z m78 3 c-13 -2
-33 -2 -45 0 -13 2 -3 4 22 4 25 0 35 -2 23 -4z m-223 -17 c0 -7 -71 -13 -75
-6 -2 3 14 7 36 8 21 2 39 1 39 -2z m-130 -10 c0 -2 -11 -6 -25 -8 -13 -3 -22
-1 -19 3 5 9 44 13 44 5z m-102 -13 c-10 -2 -26 -2 -35 0 -10 3 -2 5 17 5 19
0 27 -2 18 -5z m-95 -10 c-7 -2 -21 -2 -30 0 -10 3 -4 5 12 5 17 0 24 -2 18
-5z m-136 -9 c-3 -3 -12 -4 -19 -1 -8 3 -5 6 6 6 11 1 17 -2 13 -5z m46 -1
c-7 -2 -19 -2 -25 0 -7 3 -2 5 12 5 14 0 19 -2 13 -5z m-120 -10 c-7 -2 -19
-2 -25 0 -7 3 -2 5 12 5 14 0 19 -2 13 -5z m-96 -9 c-3 -3 -12 -4 -19 -1 -8 3
-5 6 6 6 11 1 17 -2 13 -5z m-94 -11 c-7 -2 -19 -2 -25 0 -7 3 -2 5 12 5 14 0
19 -2 13 -5z m-96 -9 c-3 -3 -12 -4 -19 -1 -8 3 -5 6 6 6 11 1 17 -2 13 -5z
m-110 -10 c-3 -3 -12 -4 -19 -1 -8 3 -5 6 6 6 11 1 17 -2 13 -5z m-132 -14
c-3 -5 -12 -10 -18 -10 -7 0 -6 4 3 10 19 12 23 12 15 0z m58 3 c-7 -2 -19 -2
-25 0 -7 3 -2 5 12 5 14 0 19 -2 13 -5z m-266 -29 c-3 -3 -12 -4 -19 -1 -8 3
-5 6 6 6 11 1 17 -2 13 -5z m-54 -11 c-7 -2 -21 -2 -30 0 -10 3 -4 5 12 5 17
0 24 -2 18 -5z m-100 -10 c-7 -2 -19 -2 -25 0 -7 3 -2 5 12 5 14 0 19 -2 13
-5z m-8113 -397 c0 -2 -8 -10 -17 -17 -16 -13 -17 -12 -4 4 13 16 21 21 21 13z
m-1067 -1631 c-3 -9 -8 -14 -10 -11 -3 3 -2 9 2 15 9 16 15 13 8 -4z m-4282
-6358 c-10 -9 -11 -8 -5 6 3 10 9 15 12 12 3 -3 0 -11 -7 -18z m-238 -342 c-3
-9 -8 -14 -10 -11 -3 3 -2 9 2 15 9 16 15 13 8 -4z"/>
</g>
</svg>
